<svg xmlns="http://www.w3.org/2000/svg" viewBox="0 0 32 32" fill="#ffffff">
  <path d="M19.11 17.36c-.28-.14-1.65-.81-1.9-.9-.25-.09-.43-.14-.6.14-.18.27-.69.9-.85 1.08-.16.18-.31.2-.59.07-.28-.14-1.15-.42-2.2-1.33-.81-.72-1.35-1.6-1.5-1.87-.16-.27-.02-.41.12-.55.12-.12.28-.31.41-.46.14-.16.18-.27.28-.45.09-.18.05-.34-.02-.48-.07-.14-.6-1.45-.82-1.99-.22-.53-.45-.46-.6-.46h-.51c-.16 0-.41.06-.63.29-.22.22-.84.82-.84 2 .0 1.18.86 2.32.98 2.48.12.16 1.69 2.6 4.1 3.64.57.25 1.02.4 1.37.51.58.18 1.11.15 1.53.09.47-.07 1.45-.59 1.65-1.16.2-.57.2-1.06.14-1.16-.05-.09-.25-.16-.53-.29z"/>
  <path d="M26.7 5.3A13.93 13.93 0 0 0 16 1C8.28 1 2 7.28 2 15c0 2.47.65 4.79 1.78 6.79L1 31l9.4-2.73A13.92 13.92 0 0 0 16 29c7.72 0 14-6.28 14-14 0-3.73-1.52-7.12-3.3-9.7zM16 27.2c-2.27 0-4.38-.66-6.16-1.8l-.44-.28-5.56 1.61 1.59-5.41-.29-.46A11.2 11.2 0 1 1 27.2 16 11.19 11.19 0 0 1 16 27.2z"/>
</svg>