<svg xmlns="http://www.w3.org/2000/svg" viewBox="0 0 32 32">
<path fill="#25D366" d="M19.11 17.85c-.29-.15-1.68-.83-1.94-.93-.26-.1-.45-.15-.64.15-.19.29-.74.92-.9 1.11-.17.19-.33.22-.62.07-.29-.15-1.21-.45-2.31-1.43-.85-.76-1.42-1.7-1.59-1.98-.17-.29-.02-.45.13-.6.13-.13.29-.33.43-.49.15-.17.19-.29.29-.48.1-.19.05-.36-.02-.5-.07-.15-.64-1.54-.88-2.11-.23-.56-.47-.48-.64-.49-.17-.01-.36-.01-.55-.01s-.5.07-.76.36c-.26.29-1 1-1 2.44s1.02 2.83 1.16 3.02c.15.19 2 3.05 4.85 4.28.68.29 1.22.46 1.64.59.69.22 1.31.19 1.81.12.55-.08 1.68-.69 1.92-1.36.24-.67.24-1.24.17-1.3...
<path fill="#fff" d="M26.53 5.47A11.95 11.95 0 0 0 16 1C8.27 1 2 7.27 2 15c0 2.46.72 4.75 1.96 6.67L2 31l9.6-1.9A13.92 13.92 0 0 0 16 29c7.73 0 14-6.27 14-14 0-3.6-1.38-6.88-3.47-9.53z"/>
</svg>